<?xml version="1.0" encoding="utf-8"?>
<!-- Generator: Adobe Illustrator 17.0.0, SVG Export Plug-In . SVG Version: 6.00 Build 0)  -->
<!DOCTYPE svg PUBLIC "-//W3C//DTD SVG 1.1//EN" "http://www.w3.org/Graphics/SVG/1.1/DTD/svg11.dtd">
<svg version="1.1" id="Layer_1" xmlns="http://www.w3.org/2000/svg" xmlns:xlink="http://www.w3.org/1999/xlink" x="0px" y="0px"
	 width="58px" height="58px" viewBox="-10 -10 58 58" enable-background="new -10 -10 58 58" xml:space="preserve">
<g>
	<path fill="#446BC1" d="M-6.375-10h50.75C46.378-10,48-8.378,48-6.375v50.75C48,46.378,46.378,48,44.375,48h-50.75
		C-8.378,48-10,46.378-10,44.375v-50.75C-10-8.378-8.378-10-6.375-10z"/>
	<path fill="#374E8D" d="M15.338,33.279L33.434,48c0,0,6.258,0,10.393,0S48,45.115,48,43.461s0-20.923,0-20.923L25.919,4.282
		l-8.952,4.57L15.338,33.279z"/>
	<path fill="#FFFFFF" d="M22.53,10.021h3.738V4.5h-4.393v0.02c-5.321,0.188-6.415,3.181-6.51,6.324h-0.011V13.6h-3.623v5.408h3.623
		V33.5h5.464V19.008h4.475l0.862-5.408h-5.336v-1.665C20.819,10.874,21.525,10.021,22.53,10.021z"/>
</g>
</svg>
