<?xml version="1.0" encoding="utf-8"?>
<!-- Generator: Adobe Illustrator 17.0.0, SVG Export Plug-In . SVG Version: 6.00 Build 0)  -->
<!DOCTYPE svg PUBLIC "-//W3C//DTD SVG 1.1//EN" "http://www.w3.org/Graphics/SVG/1.1/DTD/svg11.dtd">
<svg version="1.1" id="Layer_1" xmlns="http://www.w3.org/2000/svg" xmlns:xlink="http://www.w3.org/1999/xlink" x="0px" y="0px"
	 width="38px" height="38px" viewBox="0 0 38 38" enable-background="new 0 0 38 38" xml:space="preserve">
<g>
	<path fill="#6D574C" d="M2.011,0h33.59C36.926,0,38,1.063,38,2.375v33.25C38,36.937,36.926,38,35.601,38H2.011
		C0.686,38,0,37.248,0,35.936V2.114C0,0.802,0.686,0,2.011,0z"/>
	<path fill="#5A463E" d="M9.666,28.88l17.465,9.09c0,0,6.043,0,8.406,0s2.462-2.18,2.462-2.437s0-20.002,0-20.002L26.658,8.696
		l1.746,2.969l1.104,3.614v1.261l-3.226,8.992l-14.01,2.353L9.666,28.88z"/>
	<path fill="#FFFFFF" d="M23.502,16.573h5.9v8.93c0,2.311-1.902,4.184-4.249,4.184H12.168c-2.347,0-4.249-1.873-4.249-4.184v-8.93
		h5.872c-0.639,0.885-0.642,1.409-0.642,2.578c0,2.99,2.461,5.413,5.497,5.413s5.497-2.423,5.497-5.413
		C24.144,17.983,24.142,17.458,23.502,16.573z M29.403,12.606v2.748h-6.839c-0.997-0.997-2.383-1.616-3.916-1.616
		s-2.919,0.619-3.916,1.616H7.921v-2.748c0-1.41-0.012-2.363,1.074-3.121v3.526h1.319V8.422c0.198-0.078,0.993,0.011,1.204-0.037
		v4.649l1.153-0.004V8.424c0.121-0.003,1.257-0.003,1.257-0.003v4.649h1.074V8.422h10.152C27.501,8.422,29.403,10.295,29.403,12.606
		z M27.011,11.325c0-0.371-0.305-0.671-0.681-0.671h-2.147c-0.376,0-0.682,0.3-0.682,0.671v2.163c0,0.371,0.305,0.671,0.682,0.671
		h2.147c0.376,0,0.681-0.3,0.681-0.671v-1.495V11.325z M14.413,19.151c0-1.248,0.561-2.37,1.446-3.135
		c0.311-0.268,0.661-0.492,1.042-0.663c0.533-0.239,1.124-0.373,1.747-0.373s1.214,0.134,1.747,0.373
		c0.381,0.17,0.731,0.395,1.042,0.663c0.885,0.765,1.446,1.886,1.446,3.135c0,2.299-1.9,4.17-4.235,4.17
		C16.313,23.322,14.413,21.451,14.413,19.151z M15.532,19.151c0,1.702,1.401,3.082,3.13,3.082s3.13-1.38,3.13-3.082
		s-1.401-3.082-3.13-3.082S15.532,17.449,15.532,19.151z"/>
</g>
</svg>
