<?xml version="1.0" encoding="utf-8"?>
<!-- Generator: Adobe Illustrator 17.0.0, SVG Export Plug-In . SVG Version: 6.00 Build 0)  -->
<!DOCTYPE svg PUBLIC "-//W3C//DTD SVG 1.1//EN" "http://www.w3.org/Graphics/SVG/1.1/DTD/svg11.dtd">
<svg version="1.1" id="Layer_1" xmlns="http://www.w3.org/2000/svg" xmlns:xlink="http://www.w3.org/1999/xlink" x="0px" y="0px"
	 width="701.965px" height="354.407px" viewBox="0 0 701.965 354.407" enable-background="new 0 0 701.965 354.407"
	 xml:space="preserve">
<g>
	<path fill="#FFFFFF" d="M227.374,257.441c4.824-0.332,9.067,0.833,12.729,3.494c4.493,3.162,6.739,7.946,6.739,14.351
		c0,5.825-3.203,11.544-9.609,17.159c-6.407,5.616-13.895,9.297-22.463,11.045c0.499,11.98-0.583,20.799-3.245,26.457
		c-7.737,16.307-21.757,24.46-42.055,24.46c-11.15,0-19.387-2.827-24.71-8.486c-3.743-3.994-5.616-8.818-5.616-14.477
		c0-4.575,1.248-8.611,3.744-12.105c2.745-3.91,6.446-6.031,11.106-6.364c3.494-0.25,6.447,0.749,8.86,2.995
		c2.078,2.081,3.119,4.451,3.119,7.113c0,1.582-0.417,2.914-1.247,3.994c-1.416,1.665-2.829,3.329-4.244,4.991
		c-0.998,1.248-1.497,2.745-1.497,4.494c0,5.659,2.912,8.486,8.736,8.486c0.749,0,1.538-0.042,2.371-0.125
		c8.236-0.914,13.684-3.62,16.348-8.112c2.995-5.158,4.492-15.556,4.492-31.199v-3.494c-10.233-2.996-17.639-8.028-22.213-15.101
		c-2.081-3.16-3.12-5.99-3.12-8.486c0-2.246,0.956-3.535,2.87-3.869c0.499-0.082,0.999-0.125,1.497-0.125
		c1.829,0,3.161,0.833,3.994,2.496c0.581,1.665,1.164,3.37,1.747,5.116c2.078,5.99,7.363,10.401,15.849,13.229
		c1.664-12.23,6.031-21.671,13.103-28.329C210.818,261.227,218.389,258.024,227.374,257.441z M214.396,296.876
		c6.988-1.58,12.52-4.949,16.597-10.108c3.161-4.075,4.742-7.779,4.742-11.106c0-7.238-2.788-10.857-8.361-10.857
		c-2.664,0-5.45,1.747-8.362,5.241c-3.911,4.742-5.616,11.191-5.116,19.344C214.228,294.63,214.396,297.125,214.396,296.876z"/>
	<path fill="#FFFFFF" d="M240.851,335.064c-0.418,4.575,1.248,6.907,4.992,6.988c2.328,0.083,5.282-0.916,8.86-2.996
		c3.245-1.996,6.072-4.243,8.486-6.738c3.16-3.412,5.304-5.471,6.427-6.179c1.123-0.705,1.81-1.06,2.059-1.06
		c0.665,0,1.497,0.334,2.496,0.999c0.416,0.334,0.624,0.748,0.624,1.248c0,1.831-2.913,5.449-8.736,10.857
		c-10.732,9.901-20.55,14.851-29.451,14.851c-2.745,0-5.16-0.583-7.238-1.748c-2.829-1.579-5.035-4.034-6.614-7.362
		c-1.332-2.745-1.831-5.074-1.497-6.988c0.332-2.079,0.581-3.452,0.749-4.118c0.499-1.33,1.414-2.538,2.745-3.62
		c-2.164,2.165-3.703,3.246-4.618,3.246c-0.749,0-1.435-0.375-2.059-1.123c-0.624-0.749-0.936-1.497-0.936-2.247
		c0-0.999,0.83-2.079,2.496-3.244c0.914-0.665,3.681-3.744,8.299-9.235c4.618-5.491,9.338-10.025,14.164-13.603
		c6.821-5.158,12.895-7.738,18.22-7.738c3.494,0,6.28,1.042,8.361,3.12c2.328,2.33,3.494,4.826,3.494,7.488
		c0,3.994-2.496,8.654-7.488,13.977C257.78,327.16,249.836,332.235,240.851,335.064z M249.336,322.459
		c1.33,0,4.16-2.287,8.486-6.864c2.578-2.745,3.869-5.616,3.869-8.61c0-1.33-0.499-1.997-1.498-1.997
		c-1.581,0-4.41,2.705-8.486,8.112c-2.829,3.412-4.243,5.99-4.243,7.737C247.465,321.919,248.089,322.459,249.336,322.459z"/>
	<path fill="#FFFFFF" d="M285.401,304.988c-1.915-1.58-2.87-3.535-2.87-5.866c0-1.913,0.624-4.118,1.871-6.614
		c2.079-3.993,5.117-5.99,9.11-5.99c1.497,0,2.765,0.417,3.806,1.247c1.04,0.833,1.56,2.122,1.56,3.869
		c0,1.747-0.499,3.662-1.497,5.741c2.162,1.247,5.407,1.166,9.734-0.25c3.66-1.248,6.24-1.872,7.737-1.872
		c2.246,0,3.577,0.958,3.994,2.871c0.165,0.667,0.249,1.332,0.249,1.997c0,1.416-0.417,2.975-1.247,4.68
		c-0.833,1.706-1.666,3.349-2.496,4.929c-2.745,5.824-5.825,12.563-9.235,20.217c-0.998,2.745-0.998,4.411,0,4.991
		c1.414,0,2.662-0.705,3.744-2.121c1.997-1.83,4.492-4.243,7.488-7.238c0.83-1.165,1.954-1.747,3.369-1.747
		c0.83,0,1.414,0.249,1.747,0.749c0.665,0.666,0.999,1.248,0.999,1.747c0,0.583-0.749,1.79-2.246,3.62
		c-7.987,9.652-16.183,16.516-24.585,20.591c-2.33,1.166-4.576,1.747-6.739,1.747c-3.162,0-5.678-1.123-7.55-3.369
		c-1.871-2.247-2.683-4.575-2.433-6.988c0.581-5.242,4.824-12.812,12.729-22.713c3.076-3.826,4.617-6.821,4.617-8.985
		c0-2.079-1.79-3.12-5.366-3.12c-8.985,11.73-15.392,19.467-19.218,23.212c-1.416,1.416-2.87,1.622-4.367,0.623
		c-0.665-0.331-0.999-0.873-0.999-1.622c0-0.748,0.334-1.413,0.999-1.996c3.576-3.994,6.364-7.238,8.361-9.734
		C280.075,313.267,282.987,309.065,285.401,304.988z"/>
	<path fill="#FFFFFF" d="M356.282,334.813c-1.497-2.412-2.121-5.656-1.872-9.734c0.332-5.407,2.578-11.522,6.739-18.345
		c4.575-7.488,9.067-11.231,13.478-11.231c1.997,0,3.597,0.873,4.805,2.621c1.205,1.747,1.809,3.743,1.809,5.99
		c-0.749,7.572-4.701,16.348-11.855,26.331c0.165,0.668,1.04,0.999,2.621,0.999c0.998,0,2.786-1.704,5.366-5.117
		c1.33-1.747,2.662-2.621,3.993-2.621c1.747,0,2.621,0.833,2.621,2.496c0,0.749-0.749,1.996-2.247,3.744
		c-2.745,3.244-4.66,5.285-5.74,6.114c-3.163,2.581-6.657,3.869-10.483,3.869c-1.416,0-2.829-0.249-4.243-0.748
		c-10.401,8.569-19.343,12.853-26.831,12.853c-3.495,0-6.346-1.164-8.549-3.495c-2.205-2.327-3.307-5.157-3.307-8.486
		c0-2.496,0.624-4.908,1.872-7.238c2.578-4.743,5.823-10.732,9.734-17.971c-9.234,11.066-14.435,16.598-15.599,16.598
		c-1.747,0-2.621-0.835-2.621-2.503c0-1.42,0.999-3.172,2.996-5.262c5.656-6.594,12.77-14.525,21.34-23.793
		c3.245-2.921,6.655-4.383,10.233-4.383c2.996,0,5.074,0.918,6.24,2.753c0.666,1.002,0.999,2.086,0.999,3.252
		c0,1.252-0.873,3.756-2.621,7.509c-2.995,6.507-7.488,15.35-13.478,26.527c-0.417,0.834-0.624,1.711-0.624,2.628
		c0,2.503,1.164,3.754,3.495,3.754C347.547,341.928,351.456,339.556,356.282,334.813z"/>
	<path fill="#FFFFFF" d="M378.369,330.57c-1.831-1.164-2.246-2.536-1.248-4.118c1.664-1.913,5.117-6.156,10.359-12.729
		c2.662-3.91,5.366-7.819,8.111-11.731c3.077-4.325,5.449-6.696,7.114-7.113c2.246-0.581,3.576-0.873,3.994-0.873
		c0.749,0,1.538,0.499,2.371,1.497c3.66,4.327,5.491,7.447,5.491,9.36c0,2.246-1.706,7.113-5.116,14.601
		c-3.163,6.988-4.742,11.48-4.742,13.478c0,0.917,0.374,1.373,1.123,1.373c0.914,0,2.995-1.704,6.24-5.117
		c3.994-4.243,6.739-6.364,8.236-6.364c1.747,0,2.621,0.792,2.621,2.371c0,0.833-0.459,2.04-1.373,3.62
		c-2.164,3.663-6.864,8.361-14.102,14.101c-7.822,6.24-13.603,9.36-17.347,9.36c-2.495,0-4.535-0.999-6.115-2.995
		c-1.247-1.579-1.871-3.119-1.871-4.617c0-3.078,0.79-6.531,2.371-10.359c0.831-2.079,3.701-8.153,8.611-18.22
		c-3.329,4.161-7.114,8.654-11.357,13.477C380.99,330.155,379.867,330.489,378.369,330.57z M429.535,265.553
		c1.498,1.082,2.247,2.995,2.247,5.74c0,4.161-1.373,7.8-4.118,10.919c-2.745,3.12-6.074,4.68-9.984,4.68
		c-2.414,0-4.452-0.603-6.115-1.809c-1.665-1.205-2.496-3.264-2.496-6.178c0-3.576,1.33-7.113,3.993-10.607
		c2.496-3.245,5.657-4.867,9.484-4.867C425.208,263.431,427.538,264.139,429.535,265.553z"/>
	<path fill="#FFFFFF" d="M422.545,328.199c-1.997,2.165-3.537,3.246-4.618,3.246c-0.749,0-1.435-0.374-2.059-1.123
		s-0.936-1.497-0.936-2.247c0-0.914,0.79-1.996,2.371-3.244c1.164-0.914,3.994-3.994,8.486-9.235
		c4.908-5.656,9.567-10.358,13.977-14.101c5.491-4.742,11.231-7.114,17.221-7.114c2.745,0,5.366,0.499,7.862,1.497
		c1.829,0.749,3.036,1.498,3.619,2.247c1.913,2.246,2.87,4.742,2.87,7.488s-0.957,5.366-2.87,7.862
		c-2.33,2.996-4.867,4.493-7.612,4.493c-3.994,0-5.99-1.872-5.99-5.616c0-1.248,0.332-2.453,0.999-3.62
		c0.914-1.663,2.412-2.662,4.492-2.995c-0.916-0.749-1.914-1.123-2.995-1.123c-3.912,0-8.486,5.076-13.727,15.225
		c-3.329,6.489-4.992,11.564-4.992,15.225c0,3.91,1.664,5.908,4.992,5.99c2.328,0.083,5.282-0.914,8.86-2.995
		c3.16-1.913,5.947-4.16,8.361-6.739c3.161-3.327,5.323-5.386,6.489-6.179c1.164-0.789,1.913-1.184,2.247-1.184
		c0.581,0,1.33,0.374,2.246,1.123c0.416,0.334,0.624,0.749,0.624,1.248c0,1.747-2.913,5.366-8.736,10.857
		c-10.566,9.983-20.342,14.975-29.327,14.975c-2.745,0-5.201-0.623-7.363-1.871c-2.745-1.581-4.91-4.035-6.489-7.364
		c-1.332-2.745-1.831-5.074-1.498-6.988c0.332-2.078,0.624-3.45,0.874-4.118C420.423,330.489,421.297,329.282,422.545,328.199z"/>
	<path fill="#FFFFFF" d="M488.062,335.064c-0.418,4.575,1.248,6.907,4.992,6.988c2.328,0.083,5.282-0.916,8.86-2.996
		c3.245-1.996,6.072-4.243,8.486-6.738c3.16-3.412,5.304-5.471,6.427-6.179c1.123-0.705,1.81-1.06,2.059-1.06
		c0.665,0,1.497,0.334,2.496,0.999c0.416,0.334,0.624,0.748,0.624,1.248c0,1.831-2.913,5.449-8.736,10.857
		c-10.732,9.901-20.55,14.851-29.451,14.851c-2.745,0-5.16-0.583-7.238-1.748c-2.829-1.579-5.035-4.034-6.614-7.362
		c-1.332-2.745-1.831-5.074-1.497-6.988c0.332-2.079,0.581-3.452,0.749-4.118c0.499-1.33,1.414-2.538,2.745-3.62
		c-2.164,2.165-3.703,3.246-4.618,3.246c-0.749,0-1.435-0.375-2.059-1.123c-0.624-0.749-0.936-1.497-0.936-2.247
		c0-0.999,0.83-2.079,2.496-3.244c0.914-0.665,3.681-3.744,8.299-9.235c4.618-5.491,9.338-10.025,14.164-13.603
		c6.821-5.158,12.895-7.738,18.22-7.738c3.494,0,6.28,1.042,8.361,3.12c2.328,2.33,3.494,4.826,3.494,7.488
		c0,3.994-2.496,8.654-7.488,13.977C504.991,327.16,497.047,332.235,488.062,335.064z M496.548,322.459
		c1.33,0,4.16-2.287,8.486-6.864c2.578-2.745,3.869-5.616,3.869-8.61c0-1.33-0.499-1.997-1.498-1.997
		c-1.581,0-4.41,2.705-8.486,8.112c-2.829,3.412-4.243,5.99-4.243,7.737C494.676,321.919,495.3,322.459,496.548,322.459z"/>
	<path fill="#FFFFFF" d="M558.694,329.073c1.664-0.748,3.245-1.953,4.742-3.62c0.999-1.164,2.162-1.747,3.494-1.747
		c1.747,0,2.621,0.833,2.621,2.496c0,0.749-0.749,1.996-2.246,3.744c-2.58,3.078-5.909,4.951-9.984,5.616
		c-2.246,6.239-5.824,10.775-10.732,13.603c-3.328,1.914-6.738,2.87-10.233,2.87c-7.905,0-12.979-2.038-15.225-6.114
		c-1.416-2.496-2.121-4.992-2.121-7.488c0-4.16,1.622-7.03,4.867-8.61c2.662-1.248,5.366-1.873,8.112-1.873
		c1.579,0,4.534,0.292,8.86,0.874c0.416-2.079,0.54-5.741,0.375-10.982c-0.084-4.658,0.249-8.236,0.998-10.732
		c-2.414,1.416-6.199,5.075-11.357,10.982c-6.657,7.656-10.192,11.69-10.607,12.105c-1.497,1.497-2.995,1.747-4.493,0.748
		c-1.414-0.997-1.414-2.287,0-3.867c3.91-4.575,10.44-12.021,19.593-22.339c3.743-3.993,7.819-7.238,12.23-9.734
		c4.408-2.496,8.193-3.743,11.357-3.743c5.573,0,8.361,2.371,8.361,7.113c0,1.747-0.708,3.288-2.121,4.618
		c-1.416,1.332-2.913,1.997-4.493,1.997c-0.417,0-0.833-0.041-1.248-0.125c-2.495-0.665-4.202-0.54-5.116,0.374
		c-0.916,0.916-1.373,1.956-1.373,3.12c0,1.166,0.499,3.453,1.497,6.864c0.166,0.417,1.08,2.705,2.745,6.864
		C558.195,324.581,558.694,326.911,558.694,329.073z M538.976,334.813c-5.575-0.665-8.736-0.748-9.484-0.249
		c-1.332,0.833-1.997,1.831-1.997,2.995c0,1.497,0.79,2.664,2.372,3.495c0.581,0.249,1.164,0.374,1.747,0.374
		C534.359,341.427,536.812,339.224,538.976,334.813z"/>
</g>
<g>
	<path fill="#FFFFFF" d="M158.908,157.018c-5.192-9.697-7.783-17.37-7.783-23.011c0-5.864,2.252-8.799,6.768-8.799
		c4.738,0,8.344,3.612,10.829,10.829l0.677,2.03c23.46-44.119,49.29-77.826,77.493-101.133
		c-13.763-11.31-31.698-16.968-53.805-16.968c-27.3,0-50.538,9.269-69.71,27.807c-19.177,18.538-28.764,41.253-28.764,68.151
		c0,19.442,4.399,33.681,13.197,42.723c6.313,4.748,12.632,9.385,18.95,13.901c1.576,1.808,2.369,4.071,2.369,6.783
		c0,7.233-3.385,10.85-10.152,10.85c-3.162,0-6.429-1.237-9.814-3.722c-21.208-14.89-31.809-36.769-31.809-65.65
		c0-31.582,11.617-58.765,34.855-81.554c24.587-24.137,56.174-36.209,94.752-36.209c24.137,0,45.007,5.753,62.604,17.259
		c9.02-5.636,18.834-11.389,29.441-17.259C302.611,1.015,305.883,0,308.818,0c4.511,0,6.768,1.919,6.768,5.753
		c0,4.288-3.046,7.9-9.137,10.829c-8.576,4.061-16.243,8.577-23.011,13.536c13.081,11.283,23.233,25.042,30.456,41.285
		c6.541,14.889,9.814,29.441,9.814,43.653c0,22.335-8.291,41.792-24.872,58.374s-35.701,24.872-57.359,24.872
		c-13.763,0-27.072-2.48-39.931-7.445c-12.183,32.713-30.234,57.644-54.144,74.786c-20.304,14.662-41.85,21.997-64.634,21.997
		c-21.885,0-40.158-5.869-54.82-17.597c-14.668-11.728-21.996-26.845-21.996-45.346c0-16.693,5.076-29.663,15.228-38.916
		c8.122-6.99,17.142-10.49,27.072-10.49c7.445,0,13.705,2.538,18.781,7.614c5.076,5.076,7.614,10.776,7.614,17.09
		c0,7.223-3.553,13.197-10.659,17.935c-7.107,4.737-10.998,7.445-11.675,8.122c-4.737,4.515-7.107,9.813-7.107,15.905
		c0,10.379,7.107,15.566,21.32,15.566C90.662,260.007,121.456,226.505,158.908,157.018z M209.668,167.846
		c1.353,0,3.553,0.285,6.599,0.846c3.046,0.565,5.356,0.846,6.937,0.846c14.434,0,26.733-7.693,36.885-23.08
		c9.697-14.705,14.551-31.788,14.551-51.247c0-15.836-4.177-29.975-12.521-42.421C245.2,75.352,227.714,113.702,209.668,167.846z"/>
	<path fill="#FFFFFF" d="M354.161,224.359c-1.132,12.41,3.384,18.728,13.535,18.95c6.313,0.227,14.324-2.48,24.026-8.122
		c8.799-5.414,16.466-11.506,23.011-18.273c8.572-9.248,14.382-14.831,17.428-16.751c3.046-1.914,4.907-2.877,5.583-2.877
		c1.803,0,4.061,0.904,6.768,2.707c1.126,0.904,1.692,2.03,1.692,3.384c0,4.965-7.9,14.778-23.688,29.441
		c-29.102,26.85-55.725,40.27-79.863,40.27c-7.445,0-13.99-1.581-19.627-4.738c-7.673-4.283-13.653-10.94-17.935-19.965
		c-3.612-7.445-4.965-13.758-4.061-18.95c0.898-5.636,1.575-9.359,2.03-11.167c1.353-3.606,3.833-6.879,7.445-9.813
		c-5.869,5.869-10.041,8.798-12.521,8.798c-2.03,0-3.892-1.015-5.584-3.046c-1.692-2.03-2.538-4.061-2.538-6.091
		c0-2.707,2.253-5.636,6.768-8.798c2.48-1.803,9.983-10.152,22.504-25.042c12.521-14.889,25.322-27.183,38.408-36.885
		c18.495-13.985,34.966-20.981,49.406-20.981c9.475,0,17.031,2.824,22.673,8.46c6.313,6.318,9.475,13.086,9.475,20.304
		c0,10.829-6.768,23.466-20.304,37.9C400.066,202.929,378.525,216.692,354.161,224.359z M377.172,190.18
		c3.606,0,11.278-6.202,23.011-18.612c6.99-7.445,10.49-15.228,10.49-23.349c0-3.606-1.354-5.414-4.061-5.414
		c-4.289,0-11.961,7.334-23.011,21.996c-7.673,9.253-11.506,16.243-11.506,20.981C372.096,188.716,373.788,190.18,377.172,190.18z"
		/>
	<path fill="#FFFFFF" d="M487.824,135.36c-7.223,0-10.828-2.819-10.828-8.46c0-1.803,0.56-3.834,1.692-6.091
		c2.48-4.283,11.167-6.429,26.057-6.429c2.707-3.157,4.738-5.636,6.091-7.445c1.575-2.707,9.924-16.582,25.042-41.623
		c2.48-4.061,5.187-6.091,8.122-6.091c2.707,0,5.863,2.03,9.475,6.091c2.929,3.384,5.752,6.768,8.46,10.152
		c3.157,4.515,4.737,9.253,4.737,14.212c0,5.414-1.581,11.506-4.737,18.274c0-0.222-1.242,2.146-3.723,7.106
		c18.95,0,28.425,1.919,28.425,5.753c0,1.131-0.565,2.596-1.692,4.399l-6.091,8.799c-1.581,1.353-4.854,2.03-9.813,2.03
		c-1.581,0-4.796,0-9.645,0c-4.853,0-8.856,0-12.013,0c-8.577,14.747-13.991,23.773-16.243,27.072c0-0.449,1.354-2.929,4.061-7.445
		c-18.728,35.649-28.541,54.821-29.441,57.528c-2.935,7.673-2.596,12.521,1.015,14.551c1.126,0.677,3.384,0.508,6.768-0.507
		c3.384-1.015,5.975-2.422,7.783-4.23c8.571-6.768,18.495-15.001,29.779-24.703c2.708-2.93,5.864-4.399,9.476-4.399
		c4.737,0,7.106,2.146,7.106,6.429c0,2.03-2.03,5.414-6.091,10.152c-9.026,10.829-22.901,23.011-41.623,36.547
		c-21.885,15.566-38.239,23.349-49.068,23.349c-8.799,0-15.905-3.268-21.32-9.813c-4.965-5.637-6.995-11.617-6.091-17.936
		c2.03-15.566,12.404-39.365,31.132-71.402c-8.798,11.283-19.854,24.592-33.163,39.931c-4.289,4.289-8.35,4.965-12.183,2.03
		c-4.061-2.48-4.061-5.975,0-10.49C445.069,185.104,464.585,162.659,487.824,135.36z"/>
	<path fill="#FFFFFF" d="M664.126,208.115c4.51-2.03,8.799-5.297,12.86-9.813c2.707-3.157,5.863-4.737,9.475-4.737
		c4.737,0,7.106,2.258,7.106,6.768c0,2.03-2.03,5.414-6.091,10.152c-6.995,8.349-16.021,13.425-27.072,15.228
		c-6.091,16.92-15.794,29.218-29.102,36.886c-9.026,5.192-18.274,7.783-27.749,7.783c-21.435,0-35.193-5.525-41.284-16.582
		c-3.839-6.768-5.753-13.536-5.753-20.304c0-11.278,4.4-19.061,13.198-23.35c7.218-3.384,14.551-5.075,21.996-5.075
		c4.283,0,12.294,0.793,24.026,2.369c1.126-5.636,1.464-15.566,1.015-29.779c-0.227-12.632,0.677-22.334,2.707-29.102
		c-6.546,3.839-16.809,13.764-30.795,29.779c-18.051,20.759-27.637,31.698-28.763,32.824c-4.061,4.061-8.122,4.738-12.183,2.03
		c-3.834-2.707-3.834-6.202,0-10.49c10.601-12.404,28.309-32.597,53.129-60.573c10.151-10.829,21.203-19.627,33.163-26.395
		c11.955-6.768,22.219-10.152,30.795-10.152c15.111,0,22.673,6.429,22.673,19.289c0,4.737-1.919,8.915-5.753,12.521
		c-3.839,3.611-7.9,5.414-12.183,5.414c-1.131,0-2.258-0.111-3.384-0.338c-6.768-1.803-11.394-1.465-13.874,1.015
		c-2.485,2.485-3.723,5.303-3.723,8.46c0,3.162,1.354,9.364,4.061,18.611c0.45,1.132,2.93,7.334,7.445,18.612
		C662.773,195.933,664.126,202.252,664.126,208.115z M610.659,223.682c-15.117-1.803-23.688-2.03-25.718-0.676
		c-3.612,2.258-5.415,4.965-5.415,8.121c0,4.061,2.142,7.223,6.43,9.476c1.575,0.676,3.156,1.014,4.737,1.014
		C598.138,241.617,604.79,235.642,610.659,223.682z"/>
</g>
<g>
</g>
<g>
</g>
<g>
</g>
<g>
</g>
<g>
</g>
<g>
</g>
</svg>
