<?xml version="1.0" encoding="utf-8"?>
<!-- Generator: Adobe Illustrator 17.0.0, SVG Export Plug-In . SVG Version: 6.00 Build 0)  -->
<!DOCTYPE svg PUBLIC "-//W3C//DTD SVG 1.1//EN" "http://www.w3.org/Graphics/SVG/1.1/DTD/svg11.dtd">
<svg version="1.1" id="Layer_1" xmlns="http://www.w3.org/2000/svg" xmlns:xlink="http://www.w3.org/1999/xlink" x="0px" y="0px"
	 width="58px" height="58px" viewBox="-10 -10 58 58" enable-background="new -10 -10 58 58" xml:space="preserve">
<g>
	<path fill="#0FB0DB" d="M-6.564-9.959h50.967c2.01,0,3.641,1.62,3.641,3.62v50.679c0,2-1.629,3.62-3.641,3.62H-6.564
		c-2.01,0-3.311-1.146-3.311-3.146V-6.737C-9.876-8.737-8.574-9.959-6.564-9.959z"/>
	<path fill="#037195" d="M8.228,29.744l23.062,18.215c0,0,10.494,0,13.074,0c2.58,0,3.678-2.175,3.678-3.656s0-25.318,0-25.318
		L36.305,9.328c0,0-8.17,9.752-12.186,17.679C20.713,33.734,8.228,29.744,8.228,29.744z"/>
	<path fill="#FFFFFF" d="M37.136,11.539c-0.491,0.268-1.963,0.806-3.335,0.94c0.879-0.472,2.183-2.016,2.504-3.245
		c-0.846,0.537-2.789,1.32-3.749,1.32c0,0,0,0.002,0.002,0.003c-1.094-1.139-2.634-1.847-4.344-1.847
		c-3.317,0-6.008,2.675-6.008,5.975c0,0.457,0.055,0.904,0.154,1.331h-0.002c-4.501-0.114-9.762-2.358-12.727-6.197
		c-1.82,3.135-0.245,6.621,1.821,7.892c-0.706,0.055-2.01-0.079-2.625-0.674c-0.043,2.08,0.965,4.838,4.635,5.836
		c-0.707,0.38-1.956,0.271-2.501,0.189c0.192,1.759,2.666,4.057,5.37,4.057c-0.963,1.107-4.252,3.12-8.32,2.478
		c2.765,1.674,5.987,2.643,9.398,2.643c9.694,0,17.222-7.811,16.816-17.447c0-0.011-0.003-0.023-0.003-0.032
		c0-0.026,0.003-0.053,0.003-0.076c0-0.03-0.003-0.058-0.003-0.09C35.104,13.998,36.287,12.937,37.136,11.539z"/>
</g>
</svg>
