<?xml version="1.0" encoding="utf-8"?>
<!-- Generator: Adobe Illustrator 17.0.0, SVG Export Plug-In . SVG Version: 6.00 Build 0)  -->
<!DOCTYPE svg PUBLIC "-//W3C//DTD SVG 1.1//EN" "http://www.w3.org/Graphics/SVG/1.1/DTD/svg11.dtd">
<svg version="1.1" id="Layer_1" xmlns="http://www.w3.org/2000/svg" xmlns:xlink="http://www.w3.org/1999/xlink" x="0px" y="0px"
	 width="60px" height="40px" viewBox="-10 0 60 40" enable-background="new -10 0 60 40" xml:space="preserve">
<g>
	<path fill="#0FB0DB" d="M-7.743,0.259h55.261c1.37,0,2.482,1.104,2.482,2.468v34.546c0,1.363-1.11,2.468-2.482,2.468H-7.743
		c-1.37,0-2.257-0.781-2.257-2.145V2.455C-10.001,1.092-9.114,0.259-7.743,0.259z"/>
	<path fill="#037195" d="M22.859,27.323L38.58,39.74c0,0,7.153,0,8.912,0s2.507-1.483,2.507-2.492s0-17.258,0-17.258l-8.001-6.583
		c0,0-5.569,6.648-8.307,12.051C31.369,30.043,22.859,27.323,22.859,27.323z"/>
	<path fill="#FFFFFF" d="M42.564,14.913c-0.335,0.183-1.338,0.549-2.273,0.641c0.599-0.322,1.488-1.374,1.707-2.212
		c-0.577,0.366-1.901,0.9-2.556,0.9c0,0,0,0.001,0.001,0.002c-0.746-0.776-1.796-1.259-2.961-1.259
		c-2.261,0-4.095,1.823-4.095,4.073c0,0.312,0.037,0.616,0.105,0.907h-0.001c-3.068-0.078-6.654-1.607-8.676-4.224
		c-1.241,2.137-0.167,4.513,1.241,5.38c-0.481,0.037-1.37-0.054-1.789-0.459c-0.029,1.418,0.658,3.298,3.16,3.978
		c-0.482,0.259-1.333,0.185-1.705,0.129c0.131,1.199,1.817,2.766,3.661,2.766c-0.656,0.755-2.898,2.127-5.671,1.689
		c1.885,1.141,4.081,1.802,6.406,1.802c6.608,0,11.74-5.325,11.463-11.893c0-0.007-0.002-0.016-0.002-0.022
		c0-0.018,0.002-0.036,0.002-0.052c0-0.02-0.002-0.04-0.002-0.061C41.179,16.59,41.986,15.866,42.564,14.913z"/>
</g>
</svg>
