<?xml version="1.0" encoding="utf-8"?>
<!-- Generator: Adobe Illustrator 17.0.0, SVG Export Plug-In . SVG Version: 6.00 Build 0)  -->
<!DOCTYPE svg PUBLIC "-//W3C//DTD SVG 1.1//EN" "http://www.w3.org/Graphics/SVG/1.1/DTD/svg11.dtd">
<svg version="1.1" id="Layer_1" xmlns="http://www.w3.org/2000/svg" xmlns:xlink="http://www.w3.org/1999/xlink" x="0px" y="0px"
	 width="38px" height="38px" viewBox="0 0 38 38" enable-background="new 0 0 38 38" xml:space="preserve">
<g>
	<path fill="#446BC1" d="M2.375,0h33.25C36.937,0,38,1.063,38,2.375v33.25C38,36.937,36.937,38,35.625,38H2.375
		C1.063,38,0,36.937,0,35.625V2.375C0,1.063,1.063,0,2.375,0z"/>
	<path fill="#374E8D" d="M16.601,28.355L28.457,38c0,0,4.1,0,6.809,0S38,36.11,38,35.026s0-13.708,0-13.708L23.533,9.357
		l-5.865,2.994L16.601,28.355z"/>
	<path fill="#FFFFFF" d="M21.313,13.117h2.449V9.5h-2.878v0.013c-3.486,0.123-4.203,2.084-4.265,4.143h-0.007v1.806h-2.374v3.543
		h2.374V28.5h3.58v-9.495h2.932l0.565-3.543h-3.496v-1.091C20.192,13.676,20.654,13.117,21.313,13.117z"/>
</g>
</svg>
