<?xml version="1.0" encoding="utf-8"?>
<!-- Generator: Adobe Illustrator 17.0.0, SVG Export Plug-In . SVG Version: 6.00 Build 0)  -->
<!DOCTYPE svg PUBLIC "-//W3C//DTD SVG 1.1//EN" "http://www.w3.org/Graphics/SVG/1.1/DTD/svg11.dtd">
<svg version="1.1" id="Layer_1" xmlns="http://www.w3.org/2000/svg" xmlns:xlink="http://www.w3.org/1999/xlink" x="0px" y="0px"
	 width="60px" height="40px" viewBox="-10 0 60 40" enable-background="new -10 0 60 40" xml:space="preserve">
<g>
	<path fill="#446BC1" d="M-7.174,0.292h54.404c1.372,0,2.483,1.111,2.483,2.483v34.764c0,1.373-1.111,2.484-2.483,2.484H-7.174
		c-1.372,0-2.483-1.111-2.483-2.483V2.775C-9.657,1.403-8.546,0.292-7.174,0.292z"/>
	<path fill="#374E8D" d="M27.34,29.939l12.396,10.084c0,0,4.287,0,7.119,0c2.832,0,2.859-1.976,2.859-3.109
		c0-1.133,0-14.332,0-14.332L34.588,10.076l-6.132,3.13L27.34,29.939z"/>
	<path fill="#FFFFFF" d="M32.267,14.006h2.561v-3.782h-3.009v0.014c-3.644,0.129-4.394,2.179-4.46,4.332h-0.007v1.888h-2.482v3.705
		h2.482v9.927h3.743v-9.927h3.066l0.59-3.705h-3.655v-1.141C31.094,14.59,31.577,14.006,32.267,14.006z"/>
</g>
</svg>
