<?xml version="1.0" encoding="utf-8"?>
<!-- Generator: Adobe Illustrator 17.0.0, SVG Export Plug-In . SVG Version: 6.00 Build 0)  -->
<!DOCTYPE svg PUBLIC "-//W3C//DTD SVG 1.1//EN" "http://www.w3.org/Graphics/SVG/1.1/DTD/svg11.dtd">
<svg version="1.1" id="Layer_1" xmlns="http://www.w3.org/2000/svg" xmlns:xlink="http://www.w3.org/1999/xlink" x="0px" y="0px"
	 width="60px" height="40px" viewBox="-10 0 60 40" enable-background="new -10 0 60 40" xml:space="preserve">
<g>
	<path fill="#EE3532" d="M-7.53,0.238h55.058c1.365,0,2.47,1.105,2.47,2.47v34.583c0,1.365-1.105,2.47-2.47,2.47H-7.53
		c-1.365,0-2.47-1.105-2.47-2.47V2.708C-10,1.343-8.895,0.238-7.53,0.238z"/>
	<path fill="#CE2327" d="M25.113,28.739L38.9,39.759c0,0,6.721,0,8.702,0c1.655,0,2.429-1.585,2.397-2.522
		c0-0.659,0-16.649,0-16.649l-13.552-9.074l-3.222,0.875l0.504,3.026l-1.135,2.775l-1.387,2.018l-0.379,2.649l3.784,0.757
		l0.252,3.909l-1.514,1.514l-2.27,0.379l-3.405-0.126L25.113,28.739z"/>
	<path fill="#FFFFFF" d="M33.302,12.23c0.569,0.462,1.758,1.434,1.758,3.282c0,1.799-1.04,2.65-2.079,3.453
		c-0.322,0.316-0.694,0.657-0.694,1.192c0,0.534,0.371,0.827,0.643,1.045l0.891,0.681c1.09,0.899,2.079,1.726,2.079,3.404
		c0,2.285-2.253,4.595-6.511,4.595c-3.589,0-5.322-1.677-5.322-3.477c0-0.875,0.445-2.115,1.907-2.966
		c1.535-0.923,3.615-1.045,4.728-1.118c-0.347-0.438-0.742-0.899-0.742-1.653c0-0.414,0.124-0.656,0.248-0.949
		c-0.272,0.024-0.545,0.049-0.792,0.049c-2.624,0-4.109-1.921-4.109-3.818c0-1.118,0.52-2.359,1.585-3.258
		c1.411-1.143,3.094-1.337,4.431-1.337h5.099l-1.584,0.875H33.302L33.302,12.23z M31.544,23.026
		c-0.198-0.025-0.322-0.025-0.569-0.025c-0.222,0-1.56,0.049-2.6,0.389c-0.544,0.194-2.129,0.778-2.129,2.504
		s1.709,2.966,4.357,2.966c2.377,0,3.639-1.118,3.639-2.625C34.242,24.996,33.427,24.34,31.544,23.026L31.544,23.026z
		 M32.263,18.407c0.568-0.56,0.619-1.337,0.619-1.776c0-1.75-1.064-4.474-3.119-4.474c-0.643,0-1.337,0.316-1.733,0.803
		c-0.421,0.51-0.545,1.167-0.545,1.799c0,1.629,0.965,4.329,3.094,4.329C31.197,19.088,31.867,18.796,32.263,18.407L32.263,18.407z"
		/>
	<path fill="#FFFFFF" d="M40.118,12.588h1.234v6.175h-1.234V12.588z"/>
	<path fill="#FFFFFF" d="M37.647,15.058h6.175v1.236h-6.175V15.058z"/>
</g>
</svg>
