<?xml version="1.0" encoding="utf-8"?>
<!-- Generator: Adobe Illustrator 17.0.0, SVG Export Plug-In . SVG Version: 6.00 Build 0)  -->
<!DOCTYPE svg PUBLIC "-//W3C//DTD SVG 1.1//EN" "http://www.w3.org/Graphics/SVG/1.1/DTD/svg11.dtd">
<svg version="1.1" id="Layer_1" xmlns="http://www.w3.org/2000/svg" xmlns:xlink="http://www.w3.org/1999/xlink" x="0px" y="0px"
	 width="38px" height="38px" viewBox="0 0 38 38" enable-background="new 0 0 38 38" xml:space="preserve">
<g>
	<path fill="#EE3532" d="M2.375,0h33.249c1.312,0,2.375,1.063,2.375,2.375v33.25c0,1.312-1.063,2.375-2.375,2.375H2.375
		C1.063,38,0,36.937,0,35.625V2.375C0,1.063,1.063,0,2.375,0z"/>
	<path fill="#CE2327" d="M14.072,27.404L27.328,38c0,0,6.462,0,8.367,0c1.592,0,2.335-1.524,2.304-2.425c0-0.634,0-16.008,0-16.008
		l-13.03-8.724l-3.098,0.842l0.485,2.91l-1.091,2.668l-1.334,1.94l-0.364,2.547l3.638,0.728l0.243,3.759l-1.455,1.455l-2.183,0.364
		l-3.274-0.121L14.072,27.404z"/>
	<path fill="#FFFFFF" d="M21.946,11.531c0.547,0.444,1.69,1.379,1.69,3.156c0,1.73-1,2.548-1.999,3.32
		c-0.31,0.304-0.667,0.632-0.667,1.146s0.357,0.795,0.619,1.005l0.857,0.655c1.048,0.865,1.999,1.66,1.999,3.273
		c0,2.197-2.166,4.418-6.26,4.418c-3.451,0-5.117-1.613-5.117-3.343c0-0.842,0.428-2.034,1.833-2.852
		c1.476-0.888,3.475-1.005,4.546-1.075c-0.333-0.421-0.713-0.865-0.713-1.59c0-0.398,0.119-0.631,0.238-0.912
		c-0.262,0.023-0.524,0.047-0.762,0.047c-2.523,0-3.951-1.847-3.951-3.671c0-1.075,0.5-2.268,1.524-3.133
		c1.357-1.099,2.975-1.286,4.26-1.286h4.903l-1.523,0.842L21.946,11.531L21.946,11.531z M20.256,21.911
		c-0.19-0.024-0.31-0.024-0.547-0.024c-0.214,0-1.5,0.047-2.5,0.374c-0.523,0.187-2.047,0.748-2.047,2.408s1.643,2.852,4.189,2.852
		c2.285,0,3.499-1.075,3.499-2.524C22.85,23.805,22.066,23.174,20.256,21.911L20.256,21.911z M20.947,17.47
		c0.546-0.538,0.595-1.286,0.595-1.707c0-1.683-1.023-4.302-2.999-4.302c-0.619,0-1.285,0.304-1.666,0.772
		c-0.405,0.491-0.524,1.122-0.524,1.73c0,1.566,0.928,4.162,2.975,4.162C19.922,18.124,20.566,17.843,20.947,17.47L20.947,17.47z"/>
	<path fill="#FFFFFF" d="M28.499,11.875h1.187v5.937h-1.187V11.875z"/>
	<path fill="#FFFFFF" d="M26.124,14.25h5.937v1.188h-5.937V14.25z"/>
</g>
</svg>
