<?xml version="1.0" encoding="utf-8"?>
<!-- Generator: Adobe Illustrator 17.0.0, SVG Export Plug-In . SVG Version: 6.00 Build 0)  -->
<!DOCTYPE svg PUBLIC "-//W3C//DTD SVG 1.1//EN" "http://www.w3.org/Graphics/SVG/1.1/DTD/svg11.dtd">
<svg version="1.1" id="Layer_1" xmlns="http://www.w3.org/2000/svg" xmlns:xlink="http://www.w3.org/1999/xlink" x="0px" y="0px"
	 width="58px" height="58px" viewBox="-10 -10 58 58" enable-background="new -10 -10 58 58" xml:space="preserve">
<g>
	<path fill="#EE3532" d="M-6.339-9.959h50.677c2,0,3.62,1.62,3.62,3.62v50.679c0,2-1.62,3.62-3.62,3.62H-6.339
		c-2,0-3.62-1.62-3.62-3.62V-6.339C-9.959-8.339-8.339-9.959-6.339-9.959z"/>
	<path fill="#CE2327" d="M11.489,31.809l20.204,16.15c0,0,9.849,0,12.753,0c2.426,0,3.559-2.323,3.512-3.696
		c0-0.966,0-24.399,0-24.399L28.098,6.567l-4.722,1.283l0.739,4.435l-1.663,4.066l-2.033,2.957l-0.555,3.882l5.545,1.11l0.37,5.729
		l-2.218,2.218l-3.327,0.555l-4.99-0.184L11.489,31.809z"/>
	<path fill="#FFFFFF" d="M23.49,7.616c0.834,0.677,2.576,2.102,2.576,4.81c0,2.637-1.524,3.884-3.047,5.06
		c-0.472,0.463-1.017,0.963-1.017,1.747c0,0.783,0.544,1.212,0.943,1.532l1.306,0.998c1.597,1.318,3.047,2.53,3.047,4.989
		c0,3.349-3.301,6.734-9.541,6.734c-5.26,0-7.799-2.458-7.799-5.095c0-1.283,0.652-3.1,2.794-4.347
		c2.25-1.353,5.297-1.532,6.929-1.638c-0.508-0.642-1.087-1.318-1.087-2.423c0-0.607,0.181-0.962,0.363-1.39
		c-0.399,0.035-0.799,0.072-1.161,0.072c-3.845,0-6.022-2.815-6.022-5.595c0-1.638,0.762-3.457,2.323-4.775
		c2.068-1.675,4.534-1.96,6.493-1.96h7.473l-2.321,1.283L23.49,7.616L23.49,7.616z M20.914,23.437
		c-0.29-0.037-0.472-0.037-0.834-0.037c-0.326,0-2.286,0.072-3.81,0.57c-0.797,0.285-3.12,1.14-3.12,3.67s2.504,4.347,6.385,4.347
		c3.483,0,5.333-1.638,5.333-3.847C24.868,26.324,23.673,25.362,20.914,23.437L20.914,23.437z M21.968,16.668
		c0.832-0.82,0.907-1.96,0.907-2.602c0-2.565-1.559-6.557-4.571-6.557c-0.943,0-1.959,0.463-2.539,1.177
		c-0.617,0.748-0.799,1.71-0.799,2.637c0,2.387,1.414,6.344,4.534,6.344C20.405,17.665,21.387,17.237,21.968,16.668L21.968,16.668z"
		/>
	<path fill="#FFFFFF" d="M33.478,8.14h1.809v9.049h-1.809V8.14z"/>
	<path fill="#FFFFFF" d="M29.858,11.76h9.049v1.811h-9.049V11.76z"/>
</g>
</svg>
