<?xml version="1.0" encoding="utf-8"?>
<!-- Generator: Adobe Illustrator 17.0.0, SVG Export Plug-In . SVG Version: 6.00 Build 0)  -->
<!DOCTYPE svg PUBLIC "-//W3C//DTD SVG 1.1//EN" "http://www.w3.org/Graphics/SVG/1.1/DTD/svg11.dtd">
<svg version="1.1" id="Layer_1" xmlns="http://www.w3.org/2000/svg" xmlns:xlink="http://www.w3.org/1999/xlink" x="0px" y="0px"
	 width="38px" height="38px" viewBox="0 0 38 38" enable-background="new 0 0 38 38" xml:space="preserve">
<g>
	<path fill="#0FB0DB" d="M2.257,0h33.439c1.319,0,2.389,1.063,2.389,2.375v33.25c0,1.312-1.069,2.375-2.389,2.375H2.257
		c-1.319,0-2.172-0.752-2.172-2.064V2.114C0.084,0.802,0.938,0,2.257,0z"/>
	<path fill="#037195" d="M11.962,26.049L27.093,38c0,0,6.885,0,8.578,0s2.413-1.427,2.413-2.399s0-16.611,0-16.611l-7.701-6.336
		c0,0-5.36,6.398-7.995,11.599C20.153,28.667,11.962,26.049,11.962,26.049z"/>
	<path fill="#FFFFFF" d="M30.928,14.105c-0.322,0.176-1.288,0.529-2.188,0.617c0.577-0.31,1.432-1.323,1.643-2.129
		c-0.555,0.352-1.83,0.866-2.46,0.866c0,0,0,0.001,0.001,0.002c-0.718-0.747-1.728-1.212-2.85-1.212
		c-2.176,0-3.942,1.755-3.942,3.92c0,0.3,0.036,0.593,0.101,0.873h-0.001c-2.953-0.075-6.405-1.547-8.35-4.066
		c-1.194,2.057-0.161,4.344,1.195,5.178c-0.463,0.036-1.319-0.052-1.722-0.442c-0.028,1.365,0.633,3.174,3.041,3.829
		c-0.464,0.249-1.283,0.178-1.641,0.124c0.126,1.154,1.749,2.662,3.523,2.662c-0.632,0.726-2.79,2.047-5.459,1.626
		c1.814,1.098,3.928,1.734,6.166,1.734c6.36,0,11.299-5.125,11.033-11.447c0-0.007-0.002-0.015-0.002-0.021
		c0-0.017,0.002-0.035,0.002-0.05c0-0.02-0.002-0.038-0.002-0.059C29.595,15.718,30.371,15.022,30.928,14.105z"/>
</g>
</svg>
