<?xml version="1.0" encoding="utf-8"?>
<!-- Generator: Adobe Illustrator 17.0.0, SVG Export Plug-In . SVG Version: 6.00 Build 0)  -->
<!DOCTYPE svg PUBLIC "-//W3C//DTD SVG 1.1//EN" "http://www.w3.org/Graphics/SVG/1.1/DTD/svg11.dtd">
<svg version="1.1" id="Layer_1" xmlns="http://www.w3.org/2000/svg" xmlns:xlink="http://www.w3.org/1999/xlink" x="0px" y="0px"
	 width="38px" height="38px" viewBox="0 0 38 38" enable-background="new 0 0 38 38" xml:space="preserve">
<g>
	<path fill="#DB2426" d="M2.375,0h33.25C36.937,0,38,1.063,38,2.375v33.25C38,36.937,36.937,38,35.625,38H2.375
		C1.063,38,0,36.937,0,35.625V2.375C0,1.063,1.064,0,2.375,0z"/>
	<path fill="#FFFFFF" d="M21.643,17.721c-0.114,0-0.645,0.024-0.755,0.078c-0.111,0.051-0.405,0.134-0.514,0.245v5.007
		c0.128,0.13,0.44,0.227,0.563,0.283c0.123,0.058,0.667,0.087,0.802,0.087c0.196,0,0.338-0.056,0.43-0.17
		c0.09-0.113,0.138-0.295,0.138-0.554v-4.15c0-0.272-0.055-0.478-0.168-0.619C22.023,17.79,21.857,17.721,21.643,17.721z"/>
	<path fill="#AF2124" d="M7.81,26.003L27.214,38c0,0,6.497,0,8.411,0S38,36.264,38,35.625s0-17.813,0-17.813l-9.418-6.335l1.6,4.158
		l0.099,8.51l-4.156,2.672L7.81,26.003z"/>
	<path fill="#FFFFFF" d="M26.199,10.681H11.006c-2.175,0-5.055,2.113-5.055,5.169v6.297c0,3.262,2.999,5.152,5.319,5.152h14.666
		c2.32,0,4.934-1.89,4.934-5.152V15.85C30.869,12.794,28.374,10.681,26.199,10.681z M13.134,15.269h-2.005v9.312H9.484v-9.312H7.628
		v-1.322h5.506V15.269z M17.858,24.58h-1.406v-0.883c-0.296,0.328-0.786,0.574-1.105,0.745c-0.317,0.172-1.05,0.256-1.349,0.256
		c-0.37,0-0.533-0.118-0.721-0.358c-0.185-0.241-0.28-0.597-0.28-1.077v-6.721h1.48v6.165c0,0.19,0.034,0.328,0.099,0.411
		c0.069,0.087,0.602,0.129,0.752,0.129c0.115,0,0.265-0.056,0.443-0.17c0.181-0.112,0.53-0.256,0.68-0.43v-6.106h1.406L17.858,24.58
		L17.858,24.58z M23.947,22.919c0,0.569-0.125,1.006-0.374,1.31c-0.248,0.303-0.611,0.454-1.082,0.454
		c-0.313,0-0.59-0.056-0.832-0.175c-0.244-0.116-1.077-0.297-1.284-0.544v0.617h-1.423V13.946h1.423v3.247
		c0.215-0.242,1.046-0.432,1.285-0.558c0.243-0.127,0.487-0.19,0.735-0.19c0.504,0,0.889,0.172,1.154,0.512
		c0.267,0.343,0.399,0.843,0.399,1.501v4.461C23.948,22.919,23.947,22.919,23.947,22.919z M29.676,20.752h-3.045v1.516
		c0,0.423,0.051,0.716,0.155,0.88c0.106,0.164,0.286,0.244,0.54,0.244c0.265,0,0.448-0.069,0.554-0.209
		c0.103-0.138,0.158-0.443,0.158-0.915v-0.367h1.638v0.412c0,0.824-0.198,1.446-0.6,1.863c-0.397,0.416-0.993,0.622-1.786,0.622
		c-0.713,0-1.275-0.22-1.684-0.662c-0.409-0.441-0.616-1.049-0.616-1.823v-3.611c0-0.695,0.227-1.264,0.678-1.704
		c0.451-0.439,1.029-0.658,1.742-0.658c0.729,0,1.289,0.204,1.681,0.611c0.391,0.406,0.586,0.99,0.586,1.751L29.676,20.752
		L29.676,20.752z"/>
</g>
</svg>
