<?xml version="1.0" encoding="utf-8"?>
<!-- Generator: Adobe Illustrator 17.0.0, SVG Export Plug-In . SVG Version: 6.00 Build 0)  -->
<!DOCTYPE svg PUBLIC "-//W3C//DTD SVG 1.1//EN" "http://www.w3.org/Graphics/SVG/1.1/DTD/svg11.dtd">
<svg version="1.1" id="Layer_1" xmlns="http://www.w3.org/2000/svg" xmlns:xlink="http://www.w3.org/1999/xlink" x="0px" y="0px"
	 width="58px" height="58px" viewBox="-10 -10 58 58" enable-background="new -10 -10 58 58" xml:space="preserve">
<g>
	<path fill="#DB2426" d="M-6.47-10.109h50.94c2.01,0,3.639,1.629,3.639,3.639v50.94c0,2.01-1.629,3.639-3.639,3.639H-6.47
		c-2.01,0-3.639-1.629-3.639-3.639V-6.47C-10.109-8.48-8.479-10.109-6.47-10.109z"/>
	<path fill="#FFFFFF" d="M23.049,17.041c-0.175,0-0.988,0.037-1.157,0.119c-0.17,0.078-0.62,0.205-0.787,0.375v7.671
		c0.196,0.199,0.674,0.348,0.863,0.434c0.188,0.089,1.022,0.133,1.229,0.133c0.3,0,0.518-0.086,0.659-0.26
		c0.138-0.173,0.211-0.452,0.211-0.849v-6.358c0-0.417-0.084-0.732-0.257-0.948C23.631,17.146,23.377,17.041,23.049,17.041z"/>
	<path fill="#AF2124" d="M1.857,29.729l29.728,18.38c0,0,9.954,0,12.886,0s3.639-2.66,3.639-3.639s0-27.29,0-27.29L33.68,7.475
		l2.451,6.37l0.152,13.038l-6.367,4.094L1.857,29.729z"/>
	<path fill="#FFFFFF" d="M30.029,6.255H6.753c-3.332,0-7.744,3.237-7.744,7.919v9.647c0,4.997,4.595,7.893,8.149,7.893h22.469
		c3.554,0,7.559-2.896,7.559-7.893v-9.647C37.184,9.492,33.361,6.255,30.029,6.255z M10.013,13.284H6.941V27.55h-2.52V13.284H1.578
		v-2.025h8.435V13.284z M17.25,27.549h-2.154v-1.353c-0.453,0.503-1.204,0.879-1.693,1.141c-0.486,0.264-1.609,0.392-2.067,0.392
		c-0.567,0-0.817-0.181-1.105-0.548c-0.283-0.369-0.429-0.915-0.429-1.65V15.234h2.267v9.445c0,0.291,0.052,0.503,0.152,0.63
		c0.106,0.133,0.922,0.198,1.152,0.198c0.176,0,0.406-0.086,0.679-0.26c0.277-0.172,0.812-0.392,1.042-0.659v-9.355h2.154
		L17.25,27.549L17.25,27.549z M26.579,25.004c0,0.872-0.192,1.541-0.573,2.007c-0.38,0.464-0.936,0.696-1.658,0.696
		c-0.48,0-0.904-0.086-1.275-0.268c-0.374-0.178-1.65-0.455-1.967-0.833v0.945h-2.18V11.257h2.18v4.975
		c0.329-0.371,1.603-0.662,1.969-0.855c0.372-0.195,0.746-0.291,1.126-0.291c0.772,0,1.362,0.264,1.768,0.784
		c0.409,0.525,0.611,1.292,0.611,2.3v6.834C26.581,25.004,26.579,25.004,26.579,25.004z M35.356,21.684h-4.665v2.323
		c0,0.648,0.078,1.097,0.237,1.348c0.162,0.251,0.438,0.374,0.827,0.374c0.406,0,0.686-0.106,0.849-0.32
		c0.158-0.211,0.242-0.679,0.242-1.402v-0.562h2.509v0.631c0,1.262-0.303,2.215-0.919,2.854c-0.608,0.637-1.521,0.953-2.736,0.953
		c-1.092,0-1.953-0.337-2.58-1.014c-0.627-0.676-0.944-1.607-0.944-2.793v-5.532c0-1.065,0.348-1.936,1.039-2.611
		c0.691-0.673,1.576-1.008,2.669-1.008c1.117,0,1.975,0.313,2.575,0.936c0.599,0.622,0.898,1.517,0.898,2.683L35.356,21.684
		L35.356,21.684z"/>
</g>
</svg>
