<?xml version="1.0" encoding="utf-8"?>
<!-- Generator: Adobe Illustrator 17.0.0, SVG Export Plug-In . SVG Version: 6.00 Build 0)  -->
<!DOCTYPE svg PUBLIC "-//W3C//DTD SVG 1.1//EN" "http://www.w3.org/Graphics/SVG/1.1/DTD/svg11.dtd">
<svg version="1.1" id="Layer_1" xmlns="http://www.w3.org/2000/svg" xmlns:xlink="http://www.w3.org/1999/xlink" x="0px" y="0px"
	 width="60px" height="40px" viewBox="-10 0 60 40" enable-background="new -10 0 60 40" xml:space="preserve">
<g>
	<path fill="#DB2426" d="M-7.313,1.068h54.901C48.92,1.068,50,2.148,50,3.479v33.769c0,1.332-1.08,2.412-2.412,2.412H-7.313
		c-1.332,0-2.412-1.08-2.412-2.412V3.48C-9.725,2.148-8.644,1.068-7.313,1.068z"/>
	<path fill="#FFFFFF" d="M33.388,19.066c-0.116,0-0.655,0.025-0.767,0.079c-0.113,0.052-0.411,0.136-0.522,0.249v5.085
		c0.13,0.132,0.447,0.231,0.572,0.288c0.125,0.059,0.677,0.088,0.815,0.088c0.199,0,0.343-0.057,0.437-0.172
		c0.091-0.115,0.14-0.3,0.14-0.563v-4.215c0-0.276-0.056-0.485-0.17-0.628C33.774,19.135,33.605,19.066,33.388,19.066z"/>
	<path fill="#AF2124" d="M19.339,27.476L39.046,39.66c0,0,6.599,0,8.542,0c1.944,0,2.412-1.763,2.412-2.412
		c0-0.649,0-18.091,0-18.091l-9.566-6.434l1.625,4.223l0.101,8.643l-4.221,2.714L19.339,27.476z"/>
	<path fill="#FFFFFF" d="M38.015,11.916h-15.43c-2.209,0-5.134,2.146-5.134,5.25v6.395c0,3.313,3.046,5.232,5.402,5.232h14.895
		c2.356,0,5.011-1.92,5.011-5.232v-6.395C42.758,14.061,40.224,11.916,38.015,11.916z M24.746,16.575H22.71v9.457h-1.671v-9.457
		h-1.885v-1.342h5.592V16.575z M29.544,26.031h-1.428v-0.897c-0.3,0.333-0.798,0.583-1.122,0.756c-0.322,0.175-1.067,0.26-1.37,0.26
		c-0.376,0-0.542-0.12-0.733-0.363c-0.188-0.245-0.284-0.607-0.284-1.094v-6.826h1.503v6.261c0,0.193,0.034,0.333,0.101,0.418
		c0.07,0.088,0.611,0.131,0.764,0.131c0.117,0,0.269-0.057,0.45-0.172c0.184-0.114,0.538-0.26,0.691-0.437v-6.202h1.428V26.031
		L29.544,26.031z M35.728,24.344c0,0.578-0.127,1.022-0.38,1.33c-0.252,0.308-0.62,0.461-1.099,0.461
		c-0.318,0-0.599-0.057-0.845-0.178c-0.248-0.118-1.094-0.302-1.304-0.552v0.626h-1.445v-10.8H32.1v3.298
		c0.218-0.246,1.063-0.439,1.305-0.567c0.247-0.129,0.495-0.193,0.746-0.193c0.512,0,0.903,0.175,1.172,0.52
		c0.271,0.348,0.405,0.856,0.405,1.525V24.344C35.729,24.344,35.728,24.344,35.728,24.344z M41.546,22.143h-3.092v1.54
		c0,0.43,0.052,0.727,0.157,0.894c0.107,0.166,0.29,0.248,0.548,0.248c0.269,0,0.455-0.07,0.563-0.212
		c0.105-0.14,0.16-0.45,0.16-0.929v-0.373h1.663v0.418c0,0.837-0.201,1.468-0.609,1.892c-0.403,0.422-1.008,0.632-1.814,0.632
		c-0.724,0-1.295-0.223-1.71-0.672c-0.416-0.448-0.626-1.065-0.626-1.852v-3.668c0-0.706,0.231-1.283,0.689-1.731
		c0.458-0.446,1.045-0.668,1.769-0.668c0.74,0,1.309,0.207,1.707,0.62c0.397,0.412,0.595,1.006,0.595,1.779L41.546,22.143
		L41.546,22.143z"/>
</g>
<path fill="#FFFFFF" d="M38.094,20.96v-1.044c0-0.354,0.116-0.643,0.345-0.868c0.23-0.224,0.524-0.335,0.887-0.335
	c0.371,0,0.656,0.104,0.856,0.311c0.199,0.207,0.298,0.504,0.298,0.892v1.044C40.48,20.96,38.094,20.96,38.094,20.96z"/>
</svg>
